# xmcd CD database file
#
# Track frame offsets:
#	150
#	26046
#	50109
#	72197
#	94106
#	117692
#	136453
#	157804
#
# Disc length: 2434 seconds
#
# Revision: 0
# Processed by: cddbd v1.5.1PL0 Copyright (c) Steve Scherf et al.
# Submitted via: CDex 1.51
#
DISCID=70098008
DTITLE=Stitt, Sonny - The Best Of Sonny Stitt
DYEAR=2002
DGENRE=Jazz
TTITLE0=Jeep's Blues
TTITLE1=The Way You Look Tonight
TTITLE2=Forecast Sonny and Red
TTITLE3=You Don't Know What Love Is
TTITLE4=Cottontail
TTITLE5=In A Sentemental Mood
TTITLE6=In A Mellow Tone
TTITLE7=I'm Getting Sentimental Over You
EXTD=YEAR: 2002
EXTT0=
EXTT1=
EXTT2=
EXTT3=
EXTT4=
EXTT5=
EXTT6=
EXTT7=
PLAYORDER=
